<svg width="46" height="46" viewBox="0 0 46 46" fill="none" xmlns="http://www.w3.org/2000/svg"><path d="M22.537 0c4.457 0 8.815 1.326 12.52 3.81a22.6 22.6 0 0 1 8.301 10.148 22.7 22.7 0 0 1 1.283 13.065A22.64 22.64 0 0 1 38.473 38.6a22.5 22.5 0 0 1-11.54 6.188 22.47 22.47 0 0 1-13.02-1.286 22.55 22.55 0 0 1-10.115-8.328A22.66 22.66 0 0 1 0 22.612 22.68 22.68 0 0 1 6.609 6.63 22.53 22.53 0 0 1 22.537 0m0 41.873c3.797 0 7.51-1.13 10.667-3.247a19.25 19.25 0 0 0 7.072-8.645 19.3 19.3 0 0 0 1.092-11.13 19.3 19.3 0 0 0-5.255-9.863 19.2 19.2 0 0 0-9.83-5.272A19.14 19.14 0 0 0 15.19 4.812a19.2 19.2 0 0 0-8.617 7.095A19.3 19.3 0 0 0 3.337 22.61a19.32 19.32 0 0 0 5.63 13.615 19.2 19.2 0 0 0 13.57 5.648" fill="#092a5e"/><path d="M22.537 34.754c-.443 0-.867-.176-1.18-.49a1.68 1.68 0 0 1-.489-1.184V18.424c0-.445.176-.87.489-1.184a1.666 1.666 0 0 1 2.723.543c.084.203.127.42.127.64V33.08a1.68 1.68 0 0 1-1.031 1.547 1.7 1.7 0 0 1-.639.127m0-20.518a1.67 1.67 0 0 1-1.18-.49 1.68 1.68 0 0 1-.489-1.185 1.87 1.87 0 0 1 .47-1.267 1.86 1.86 0 0 1 1.199-.617 1.5 1.5 0 0 1 1.53.86c.088.19.136.396.14.606v.418a1.68 1.68 0 0 1-1.031 1.548 1.7 1.7 0 0 1-.639.127" fill="#092a5e"/></svg>