<svg width="46" height="46" viewBox="0 0 46 46" fill="none" xmlns="http://www.w3.org/2000/svg"><path d="M22.537 0A22.537 22.537 0 1 1 0 22.537 22.563 22.563 0 0 1 22.537 0m0 41.735a19.2 19.2 0 1 0-19.2-19.2 19.22 19.22 0 0 0 19.2 19.2" fill="#092a5e"/><path d="M22.537 34.64a1.67 1.67 0 0 1-1.669-1.669V18.363a1.67 1.67 0 1 1 3.339 0v14.608a1.67 1.67 0 0 1-1.67 1.669m0-20.451a1.67 1.67 0 0 1-1.669-1.669 1.86 1.86 0 0 1 1.669-1.878 1.5 1.5 0 0 1 1.67 1.461v.417a1.67 1.67 0 0 1-1.67 1.669" fill="#092a5e"/></svg>